<svg width="260" height="216" viewBox="0 0 260 216" fill="none" xmlns="http://www.w3.org/2000/svg">
<path style="mix-blend-mode:screen" d="M194.977 138.013L253.834 193.938L221.334 214.708L168.223 169.672C168.223 169.672 186.136 145.198 194.979 138.013L194.977 138.013Z" fill="url(#paint0_linear_2094_40460)"/>
<path fill-rule="evenodd" clip-rule="evenodd" d="M122.436 150.51L109.819 160.655C109.819 160.655 130.582 181.941 168.107 189.076L169.091 187.933L134.722 159.871L136.713 157.384L122.431 150.51L122.436 150.51Z" fill="url(#paint1_linear_2094_40460)"/>
<path fill-rule="evenodd" clip-rule="evenodd" d="M169.954 95.4571L178.345 81.0889C178.345 81.0889 202.438 98.5099 215.017 134.611L214.033 135.754L181.24 105.862L179.078 108.202L169.956 95.4595L169.954 95.4571Z" fill="url(#paint2_linear_2094_40460)"/>
<path fill-rule="evenodd" clip-rule="evenodd" d="M15.9617 10.508C29.4151 -5.11395 88.1151 2.89241 121.408 35.0719C154.702 67.2513 192.239 127.736 192.239 127.736L175.203 147.922L157.768 167.763C157.768 167.763 92.4715 139.51 55.7678 111.289C19.0641 83.0682 2.59527 26.0254 15.9594 10.5079L15.9617 10.508Z" fill="url(#paint3_radial_2094_40460)"/>
<path fill-rule="evenodd" clip-rule="evenodd" d="M192.242 127.736C192.242 127.736 170.599 148.771 157.771 167.763C157.771 167.763 179.231 147.316 192.242 127.736Z" fill="#2E185D"/>
<path fill-rule="evenodd" clip-rule="evenodd" d="M49.8789 3.1915C49.8789 3.1915 23.8086 19.2798 14.5094 47.959C14.5094 47.959 6.30062 21.9336 15.9616 10.5083C24.6526 0.231589 49.8789 3.1915 49.8789 3.1915Z" fill="url(#paint4_radial_2094_40460)"/>
<path d="M14.9678 48.1003C23.3628 21.3186 49.8748 3.76592 50.1427 3.59351L49.6212 2.79141C49.3532 2.96858 22.5564 20.7002 14.0549 47.8172L14.9677 48.1027L14.9678 48.1003Z" fill="#4F365E"/>
<path fill-rule="evenodd" clip-rule="evenodd" d="M21.7269 6.31702L12.2401 18.5282C12.2401 18.5282 13.1158 8.94156 21.7269 6.31702Z" fill="#4F365E"/>
<path fill-rule="evenodd" clip-rule="evenodd" d="M19.7638 7.45921C19.7638 7.45921 16.4804 10.1031 13.9239 13.897C13.9239 13.897 9.46931 7.81185 11.0046 5.63956C12.5398 3.46728 19.7614 7.45913 19.7614 7.45913L19.7638 7.45921Z" fill="url(#paint5_linear_2094_40460)"/>
<path style="mix-blend-mode:multiply" opacity="0.5" fill-rule="evenodd" clip-rule="evenodd" d="M166.231 89.1548C166.231 89.1548 126.086 113.376 111.854 145.641C129.338 154.928 157.768 167.762 157.768 167.762C157.768 167.762 168.796 150.615 192.239 127.736C192.239 127.736 180.713 106.956 166.231 89.1548Z" fill="url(#paint6_radial_2094_40460)"/>
<path style="mix-blend-mode:multiply" opacity="0.5" fill-rule="evenodd" clip-rule="evenodd" d="M42.3852 31.036C55.6255 17.8831 81.0597 22.3312 96.2634 34.3286C111.465 46.3235 108.872 67.4415 96.1631 81.3849C83.4542 95.3283 63.4373 98.6861 48.8066 83.2107C35.5801 69.2227 27.6909 45.6339 42.3852 31.036Z" fill="url(#paint7_radial_2094_40460)"/>
<path fill-rule="evenodd" clip-rule="evenodd" d="M40.0555 29.0263C53.2959 15.8734 78.7301 20.3215 93.9338 32.3189C109.135 44.3138 106.545 65.4319 93.8335 79.3753C81.1245 93.3187 61.1077 96.6764 46.477 81.2011C33.2505 67.213 25.3612 43.6242 40.0555 29.0263Z" fill="#2E185D"/>
<path fill-rule="evenodd" clip-rule="evenodd" d="M38.431 27.6221C51.6714 14.4692 77.1056 18.9174 92.3093 30.9147C107.511 42.9096 104.92 64.0278 92.209 77.9711C79.5001 91.9121 59.4832 95.2723 44.8525 79.7969C31.626 65.8089 23.7367 42.2201 38.431 27.6221Z" fill="url(#paint8_radial_2094_40460)"/>
<path fill-rule="evenodd" clip-rule="evenodd" d="M42.8287 33.0473C54.4807 21.0822 73.1249 26.128 84.9964 35.4887C96.8655 44.8493 94.7841 61.4019 84.798 72.3584C74.8142 83.315 59.1355 85.9961 47.7238 73.9099C37.4055 62.9834 30.6539 45.5438 42.8288 33.045L42.8287 33.0473Z" fill="#983E5F"/>
<path fill-rule="evenodd" clip-rule="evenodd" d="M70.5155 80.6388L70.5298 80.6393L70.5585 80.6355C75.737 79.481 80.6686 76.5006 84.6549 72.1339C94.1566 61.7028 96.2939 44.3983 84.9985 35.4885C81.1966 32.4999 76.7531 30.103 72.0552 28.6948C62.793 25.8757 52.5976 26.9043 44.7059 34.7076C33.0468 46.2408 39.545 63.2044 49.3658 73.6087C55.6736 80.2896 63.3447 82.2258 70.5179 80.6365L70.5155 80.6388Z" fill="url(#paint9_linear_2094_40460)"/>
<path d="M94.0953 79.07L134.737 114.199L134.424 114.561L93.7825 79.4327L94.0953 79.07Z" fill="#4F365E"/>
<path d="M112.081 145.721C112.176 145.449 122.055 118.254 166.366 89.3553L166.103 88.9553C121.641 117.954 111.724 145.291 111.629 145.562L112.081 145.721Z" fill="#4F365E"/>
<path d="M117.969 100.032C137.289 79.9079 155.221 74.6729 155.396 74.6262L155.266 74.1639C155.086 74.2151 137.034 79.4773 117.625 99.7011L117.969 100.032Z" fill="#4F365E"/>
<path fill-rule="evenodd" clip-rule="evenodd" d="M159.847 144.269L142.779 128.56L137.426 132.313L156.603 148.035L159.847 144.269Z" fill="#2E185D"/>
<path fill-rule="evenodd" clip-rule="evenodd" d="M189.75 131.356C189.75 131.356 173.105 147.294 159.947 165.638L168.702 171.396L195.766 138.218L189.752 131.356L189.75 131.356Z" fill="url(#paint10_radial_2094_40460)"/>
<path opacity="0.5" fill-rule="evenodd" clip-rule="evenodd" d="M192.788 134.822C192.788 134.822 184.544 137.953 177.989 145.901C171.434 153.849 166.674 170.062 166.674 170.062L159.948 165.638C159.948 165.638 174.132 145.51 189.751 131.356L192.788 134.822Z" fill="#2E185D"/>
<path d="M42.8313 46.6106C42.8313 46.6106 42.9676 51.9108 45.8037 58.9441L41.891 60.3004C41.891 60.3004 38.6721 53.8889 40.2507 48.4715L42.8289 46.6105L42.8313 46.6106Z" fill="white"/>
<path d="M85.1605 42.4901L87.1799 48.1366L90.431 47.0374L88.5247 42.5802L85.1605 42.4901Z" fill="white"/>
<path style="mix-blend-mode:multiply" opacity="0.5" fill-rule="evenodd" clip-rule="evenodd" d="M60.8837 4.79441C60.8837 4.79441 30.3968 17.1008 16.9501 55.7256L14.5101 47.9588C14.5101 47.9588 21.0502 24.5839 49.8796 3.19132L60.8813 4.79434L60.8837 4.79441Z" fill="url(#paint11_radial_2094_40460)"/>
<path fill-rule="evenodd" clip-rule="evenodd" d="M121.317 101.112C122.008 101.707 123.051 101.63 123.646 100.939C124.241 100.248 124.164 99.2027 123.473 98.6073C122.783 98.0118 121.739 98.0893 121.142 98.7804C120.547 99.4715 120.624 100.516 121.315 101.112L121.317 101.112Z" fill="url(#paint12_linear_2094_40460)"/>
<path fill-rule="evenodd" clip-rule="evenodd" d="M121.548 100.848C122.093 101.317 122.914 101.256 123.383 100.711C123.851 100.166 123.791 99.343 123.246 98.8741C122.702 98.4052 121.88 98.4662 121.411 99.0112C120.943 99.5563 121.004 100.379 121.548 100.848Z" fill="url(#paint13_radial_2094_40460)"/>
<path fill-rule="evenodd" clip-rule="evenodd" d="M115.145 95.7858C115.836 96.3812 116.88 96.3037 117.475 95.6126C118.069 94.9215 117.994 93.8765 117.302 93.2811C116.611 92.6857 115.567 92.7631 114.972 93.4543C114.378 94.1454 114.455 95.1904 115.145 95.7858Z" fill="url(#paint14_linear_2094_40460)"/>
<path fill-rule="evenodd" clip-rule="evenodd" d="M115.374 95.5188C115.918 95.9877 116.74 95.9267 117.208 95.3817C117.677 94.8367 117.616 94.014 117.072 93.5451C116.527 93.0762 115.705 93.1372 115.237 93.6823C114.768 94.2273 114.829 95.0499 115.374 95.5188Z" fill="url(#paint15_radial_2094_40460)"/>
<path fill-rule="evenodd" clip-rule="evenodd" d="M90.8337 38.8523C91.524 39.4477 92.568 39.3702 93.1629 38.6791C93.7577 37.988 93.6804 36.943 92.99 36.3452C92.2997 35.7498 91.2557 35.8272 90.6609 36.5184C90.066 37.2095 90.1433 38.2545 90.8337 38.8499L90.8337 38.8523Z" fill="#2E185D"/>
<path fill-rule="evenodd" clip-rule="evenodd" d="M91.0619 38.5856C91.6064 39.0545 92.4282 38.9935 92.8966 38.4485C93.3651 37.9034 93.3042 37.0808 92.7598 36.6119C92.2153 36.143 91.3935 36.204 90.9251 36.749C90.4566 37.2941 90.5175 38.1167 91.0619 38.5856Z" fill="url(#paint16_radial_2094_40460)"/>
<path fill-rule="evenodd" clip-rule="evenodd" d="M71.2281 25.7663C71.9185 26.3617 72.9625 26.2842 73.5573 25.5931C74.1522 24.902 74.0749 23.857 73.3845 23.2615C72.6941 22.6661 71.6501 22.7436 71.0553 23.4347C70.4604 24.1259 70.5377 25.1709 71.2281 25.7663Z" fill="#2E185D"/>
<path fill-rule="evenodd" clip-rule="evenodd" d="M71.4588 25.4996C72.0032 25.9686 72.825 25.9076 73.2935 25.3625C73.762 24.8175 73.7011 23.9949 73.1566 23.526C72.6122 23.0571 71.7904 23.1181 71.3219 23.6631C70.8534 24.2081 70.9143 25.0307 71.4588 25.4996Z" fill="url(#paint17_radial_2094_40460)"/>
<path fill-rule="evenodd" clip-rule="evenodd" d="M94.724 62.6472C95.4143 63.2426 96.4583 63.1651 97.0532 62.474C97.648 61.7828 97.5707 60.7378 96.8803 60.1424C96.1899 59.547 95.146 59.6221 94.5511 60.3156C93.9562 61.0068 94.0312 62.0517 94.724 62.6472Z" fill="#2E185D"/>
<path fill-rule="evenodd" clip-rule="evenodd" d="M94.9523 62.3805C95.4968 62.8494 96.3186 62.7884 96.787 62.2434C97.2555 61.6983 97.1946 60.8757 96.6502 60.4068C96.1057 59.9379 95.2839 59.9989 94.8154 60.544C94.347 61.089 94.4079 61.9116 94.9523 62.3805Z" fill="url(#paint18_radial_2094_40460)"/>
<path fill-rule="evenodd" clip-rule="evenodd" d="M79.5202 83.3439C80.2106 83.9393 81.2546 83.8618 81.8494 83.1707C82.4443 82.4796 82.367 81.4346 81.6766 80.8392C80.9862 80.2438 79.9422 80.3213 79.3474 81.0124C78.7525 81.7035 78.8299 82.7485 79.5202 83.3439Z" fill="#2E185D"/>
<path fill-rule="evenodd" clip-rule="evenodd" d="M79.7511 83.0795C80.2956 83.5484 81.1174 83.4874 81.5859 82.9424C82.0543 82.3973 81.9935 81.5747 81.449 81.1058C80.9045 80.6369 80.0827 80.6979 79.6143 81.2429C79.1458 81.788 79.2067 82.6106 79.7511 83.0795Z" fill="url(#paint19_radial_2094_40460)"/>
<path fill-rule="evenodd" clip-rule="evenodd" d="M56.5298 86.4035C57.2202 86.9989 58.2641 86.9214 58.859 86.2303C59.4538 85.5392 59.3765 84.4942 58.6861 83.8988C57.9957 83.3034 56.9518 83.3808 56.3569 84.072C55.762 84.7631 55.8394 85.8081 56.5298 86.4035Z" fill="#2E185D"/>
<path fill-rule="evenodd" clip-rule="evenodd" d="M56.7603 86.1367C57.3048 86.6056 58.1265 86.5446 58.595 85.9996C59.0635 85.4546 59.0026 84.632 58.4581 84.1631C57.9137 83.6942 57.0919 83.7552 56.6234 84.3002C56.155 84.8452 56.2158 85.6678 56.7603 86.1367Z" fill="url(#paint20_radial_2094_40460)"/>
<path fill-rule="evenodd" clip-rule="evenodd" d="M36.0865 65.2555C36.7769 65.8509 37.8209 65.7734 38.4157 65.0823C39.0106 64.3912 38.9356 63.3463 38.2428 62.7508C37.5524 62.1554 36.5085 62.2329 35.9136 62.924C35.3188 63.6151 35.3937 64.66 36.0865 65.2555Z" fill="#2E185D"/>
<path fill-rule="evenodd" clip-rule="evenodd" d="M36.3176 64.9891C36.862 65.4581 37.6838 65.3971 38.1523 64.852C38.6207 64.307 38.5599 63.4844 38.0154 63.0155C37.4709 62.5466 36.6492 62.6076 36.1807 63.1526C35.7122 63.6976 35.7731 64.5202 36.3176 64.9891Z" fill="url(#paint21_radial_2094_40460)"/>
<path fill-rule="evenodd" clip-rule="evenodd" d="M33.1517 45.5191C33.8421 46.1145 34.886 46.037 35.4809 45.3459C36.0758 44.6548 35.9984 43.6098 35.308 43.0144C34.6176 42.419 33.5738 42.4941 32.9788 43.1876C32.384 43.8787 32.4613 44.9237 33.1517 45.5191Z" fill="#2E185D"/>
<path fill-rule="evenodd" clip-rule="evenodd" d="M33.3819 45.2525C33.9263 45.7214 34.7481 45.6604 35.2166 45.1153C35.6851 44.5703 35.6242 43.7477 35.0797 43.2788C34.5353 42.8099 33.7135 42.8709 33.245 43.4159C32.7765 43.9609 32.8374 44.7835 33.3819 45.2525Z" fill="url(#paint22_radial_2094_40460)"/>
<path fill-rule="evenodd" clip-rule="evenodd" d="M45.6755 27.3498C46.3659 27.9452 47.4099 27.8677 48.0047 27.1766C48.5996 26.4854 48.5222 25.4405 47.8319 24.845C47.1415 24.2496 46.0975 24.3271 45.5027 25.0182C44.9078 25.7094 44.9851 26.7544 45.6755 27.3498Z" fill="#2E185D"/>
<path fill-rule="evenodd" clip-rule="evenodd" d="M45.9059 27.0828C46.4504 27.5517 47.2722 27.4907 47.7406 26.9457C48.2091 26.4006 48.1482 25.578 47.6038 25.1091C47.0593 24.6402 46.2375 24.7012 45.7691 25.2462C45.3006 25.7913 45.3615 26.6139 45.9059 27.0828Z" fill="url(#paint23_radial_2094_40460)"/>
<path fill-rule="evenodd" clip-rule="evenodd" d="M214.031 135.754L213.237 136.674L180.417 106.748L181.238 105.862L214.031 135.754Z" fill="#662B60"/>
<path fill-rule="evenodd" clip-rule="evenodd" d="M134.725 159.87L135.48 158.927L169.629 187.311L169.093 187.933L134.725 159.87Z" fill="#662B60"/>
<path fill-rule="evenodd" clip-rule="evenodd" d="M131.181 125.169L128.341 128.47L183.939 170.697L185.915 168.398L131.181 125.169Z" fill="url(#paint24_linear_2094_40460)"/>
<path fill-rule="evenodd" clip-rule="evenodd" d="M131.181 125.169L144.837 132.953L185.915 168.398L131.181 125.169Z" fill="#EB5D64"/>
<path opacity="0.5" fill-rule="evenodd" clip-rule="evenodd" d="M130.051 129.769L157.771 167.763L164.201 159.415L172.663 166.54L174.958 163.875L130.051 129.769Z" fill="#2E185D"/>
<path d="M73.1254 10.978C73.1254 10.978 69.7752 7.52014 65.5591 7.89314L64.0335 9.84867C64.0335 9.84867 68.638 11.2705 72.3223 11.9127L73.1253 10.9804L73.1254 10.978Z" fill="white"/>
<g style="mix-blend-mode:soft-light">
<path d="M102.949 137.956L84.2885 127.864L83.4605 128.829L101.97 139.092L102.949 137.956Z" fill="white"/>
</g>
<path fill-rule="evenodd" clip-rule="evenodd" d="M29.3013 81.3709C29.3013 81.3709 23.0776 86.1595 33.5656 87.8027L29.3013 81.3709Z" fill="url(#paint25_linear_2094_40460)"/>
<path fill-rule="evenodd" clip-rule="evenodd" d="M86.9686 12.8233C86.9686 12.8233 93.2194 8.79889 93.7077 15.9165L86.9686 12.8233Z" fill="url(#paint26_linear_2094_40460)"/>
<g style="mix-blend-mode:soft-light" opacity="0.5">
<path fill-rule="evenodd" clip-rule="evenodd" d="M186.802 132.895C186.802 132.895 153.279 77.7406 123.653 41.9162L125.647 41.0735C125.647 41.0735 172.788 94.0792 191.486 128.479L186.804 132.895L186.802 132.895Z" fill="white"/>
</g>
<g style="mix-blend-mode:soft-light">
<path fill-rule="evenodd" clip-rule="evenodd" d="M80.2721 125.322L69.103 118.709L68.3148 119.625L79.4839 126.238L80.2721 125.322Z" fill="white"/>
</g>
<g style="mix-blend-mode:soft-light">
<path fill-rule="evenodd" clip-rule="evenodd" d="M148.247 78.1699C148.247 78.1699 135.208 84.3044 126.109 93.0171C126.109 93.0171 136.378 85.3762 148.247 78.1699Z" fill="white"/>
</g>
<g style="mix-blend-mode:soft-light">
<path fill-rule="evenodd" clip-rule="evenodd" d="M97.3182 82.9972L132.762 114C132.762 114 119.297 103.461 97.3182 82.9972Z" fill="white"/>
</g>
<g style="mix-blend-mode:soft-light">
<path fill-rule="evenodd" clip-rule="evenodd" d="M158.544 95.0975C158.544 95.0975 131.108 112.839 115.965 139.473C115.965 139.473 126.368 119.015 158.544 95.0975Z" fill="white"/>
</g>
<path fill-rule="evenodd" clip-rule="evenodd" d="M60.3576 19.6238C60.3576 19.6238 58.8736 23.9853 51.2007 20.6678C51.2007 20.6678 56.2273 19.4224 60.3576 19.6238Z" fill="white"/>
<g style="mix-blend-mode:soft-light">
<path fill-rule="evenodd" clip-rule="evenodd" d="M89.5568 80.6261C89.5568 80.6261 82.4545 88.0501 66.1119 89.984C66.1119 89.984 78.5432 91.0882 89.5568 80.6261Z" fill="white"/>
</g>
<g style="mix-blend-mode:soft-light">
<path fill-rule="evenodd" clip-rule="evenodd" d="M85.2876 71.8137C85.2876 71.8137 83.085 81.7475 72.4105 80.6253C72.4105 80.6253 78.7315 79.7973 85.2876 71.8137Z" fill="white"/>
</g>
<g style="mix-blend-mode:soft-light" opacity="0.36">
<path fill-rule="evenodd" clip-rule="evenodd" d="M101.693 83.6655C102.313 83.4976 103.362 83.0577 103.862 83.7136C104.095 84.0195 104.192 84.3973 104.391 84.7235C104.565 85.0107 104.773 85.2753 105.006 85.5144C105.324 85.8398 105.696 86.4795 105.749 86.9536C105.79 87.3128 105.411 87.3288 105.116 87.2928C104.791 87.251 104.454 87.2064 104.192 87.0021C103.85 86.7356 103.518 86.4717 103.129 86.2822C102.979 86.2081 102.788 86.2089 102.634 86.1251C102.432 86.0158 102.257 85.8454 102.086 85.6895C101.72 85.3553 101.252 84.4619 101.691 83.6654L101.693 83.6655Z" fill="white"/>
<path fill-rule="evenodd" clip-rule="evenodd" d="M108.205 86.4292C108.081 86.2295 107.917 86.1406 107.711 86.1624C107.207 86.7754 108.212 88.011 108.93 87.6436C109.754 87.2225 108.932 86.3722 108.374 86.2368L108.208 86.4293L108.205 86.4292Z" fill="white"/>
<path fill-rule="evenodd" clip-rule="evenodd" d="M125.353 81.91C124.93 82.0939 124.498 82.175 124.277 82.5923C124.091 82.9463 124.059 83.3317 124.116 83.72C124.185 84.2042 124.451 84.6114 124.709 85.0159C124.836 85.2157 124.926 85.4382 125.146 85.5457C126.017 85.9681 127.211 85.5927 127.965 85.1239C128.403 84.8522 128.832 84.6279 129.202 84.2633C129.451 84.0163 129.723 83.782 129.993 83.5596C130.221 83.3715 130.487 83.2444 130.625 82.9675C130.724 82.768 130.767 82.4283 130.779 82.2093C130.819 81.5021 130.577 80.8262 130.031 80.3906C129.079 79.6291 127.396 80.0957 126.376 80.5246C125.537 80.8761 124.315 81.5249 125.353 81.9124L125.353 81.91Z" fill="white"/>
<path fill-rule="evenodd" clip-rule="evenodd" d="M121.612 83.7225C121.951 83.8602 122.099 83.8532 122.059 84.1906C122.032 84.4354 121.839 84.646 121.642 84.7636C121.255 84.994 120.422 84.9783 120.299 84.4518C120.236 84.1873 120.185 83.6418 120.337 83.425C120.638 82.996 121.629 82.986 121.942 83.3375L121.61 83.7224L121.612 83.7225Z" fill="white"/>
<path fill-rule="evenodd" clip-rule="evenodd" d="M120.239 103.533C120.432 103.616 120.543 103.711 120.701 103.847C121.057 104.157 121.416 104.465 121.773 104.775C122.445 105.36 123.203 105.841 123.88 106.419C124.371 106.841 124.786 107.344 125.203 107.834C125.419 108.085 125.636 108.362 125.83 108.626C125.762 108.669 125.632 108.574 125.554 108.552C125.294 108.474 125.043 108.344 124.781 108.29C124.189 108.163 123.577 108.021 122.996 107.85C122.888 107.817 122.787 107.752 122.673 107.743C122.531 107.734 122.363 107.759 122.22 107.759C121.962 107.76 121.694 107.742 121.446 107.66C120.871 107.474 120.361 107.037 119.927 106.624C119.779 106.483 119.668 106.315 119.515 106.179C119.351 106.03 119.196 105.889 119.049 105.722C118.739 105.368 118.559 104.911 118.404 104.47C118.226 103.953 117.804 103.178 118.101 102.628C118.245 102.36 118.565 102.49 118.778 102.614C119.047 102.769 119.281 102.972 119.54 103.141C119.883 103.359 120.34 103.57 120.242 103.534L120.239 103.533Z" fill="white"/>
<path fill-rule="evenodd" clip-rule="evenodd" d="M116.646 101.274C116.388 101.227 115.959 101.096 115.792 101.398C115.63 101.698 115.981 102.012 116.205 102.156C116.73 102.49 116.759 101.471 116.419 101.245L116.646 101.274Z" fill="white"/>
<path fill-rule="evenodd" clip-rule="evenodd" d="M115.642 108.383C115.897 108.456 116.133 108.521 116.3 108.737C116.54 109.043 116.462 109.362 116.233 109.653C115.88 110.094 115.519 110.295 115.004 110.003C114.686 109.823 114.432 109.285 114.418 108.927C114.409 108.758 114.472 108.59 114.574 108.45C114.781 108.169 115.097 108.222 115.407 108.268L115.642 108.386L115.642 108.383Z" fill="white"/>
<path fill-rule="evenodd" clip-rule="evenodd" d="M120.771 129.607C119.916 129.999 119.064 130.4 118.318 130.981C117.663 131.491 117.185 132.16 116.592 132.734C115.757 133.542 114.767 134.093 113.827 134.766C112.999 135.358 112.273 135.986 111.804 136.91C111.45 137.609 111.297 138.537 111.602 139.279C111.789 139.734 112.085 140.151 112.411 140.518C112.567 140.695 112.72 140.845 112.876 141.017C112.975 141.128 113.012 141.234 113.144 141.336C113.316 141.471 113.373 141.413 113.507 141.253C113.765 140.949 113.916 140.711 113.986 140.307C114.09 139.703 114.405 139.112 114.715 138.588C115.021 138.068 115.289 137.541 115.627 137.039C115.958 136.547 116.291 136.054 116.613 135.555C116.892 135.125 117.154 134.688 117.43 134.255C117.704 133.83 118.036 133.445 118.336 133.04C118.585 132.703 118.893 132.412 119.135 132.067C119.288 131.851 119.431 131.643 119.606 131.444C119.748 131.284 119.857 131.132 119.966 130.95C120.069 130.779 120.224 130.653 120.343 130.495C120.423 130.39 120.634 129.989 120.768 129.607L120.771 129.607Z" fill="white"/>
<path fill-rule="evenodd" clip-rule="evenodd" d="M114.452 131.294C114.619 131.266 114.8 131.2 114.948 131.279C115.006 131.312 115.096 131.408 115.135 131.462C115.365 131.772 114.97 132.26 114.772 132.495C114.219 133.142 113.385 133.711 112.518 133.78C111.963 133.823 111.204 133.648 110.85 133.185C110.359 132.546 110.578 131.609 110.929 130.948C111.257 130.331 111.856 129.578 112.611 129.529C112.878 129.512 113.168 129.543 113.389 129.703C113.559 129.826 113.66 130.017 113.817 130.159C114.028 130.347 114.308 130.397 114.427 130.68C114.511 130.878 114.501 131.09 114.452 131.291L114.452 131.294Z" fill="white"/>
<path fill-rule="evenodd" clip-rule="evenodd" d="M111.182 135.19C111.033 135.002 111.003 134.996 110.777 134.981C110.572 134.967 110.43 135.024 110.333 135.214C110.18 135.512 110.341 135.911 110.657 136C110.858 136.057 111.11 135.931 111.257 135.791C111.434 135.62 111.439 135.346 111.315 135.137L111.184 135.192L111.182 135.19Z" fill="white"/>
<path fill-rule="evenodd" clip-rule="evenodd" d="M92.9506 128.109C93.2991 127.949 93.4201 127.893 93.7732 127.953C93.9509 127.983 94.0639 128.024 94.1464 128.197C94.3515 128.621 94.3214 129.314 94.1546 129.743C94.0347 130.054 93.7437 130.349 93.4301 130.463C93.1527 130.563 92.7753 130.52 92.4868 130.525C92.215 130.527 91.9464 130.507 91.6779 130.483C91.2099 130.439 90.7444 130.321 90.5918 129.82C90.4564 129.377 90.567 128.772 90.8999 128.435C91.1687 128.162 91.4148 128.07 91.7552 127.938C92.0787 127.813 92.3383 127.674 92.9482 128.109L92.9506 128.109Z" fill="white"/>
<path fill-rule="evenodd" clip-rule="evenodd" d="M95.5154 128.053C95.3631 128.263 95.2533 128.488 95.1903 128.736C95.2832 128.806 95.2354 128.955 95.367 129.007C95.5551 129.08 95.7191 128.804 95.811 128.688C95.9254 128.544 95.9917 128.338 95.9765 128.152C95.9692 128.085 95.9435 127.781 95.8182 127.896L95.5154 128.053Z" fill="white"/>
<path fill-rule="evenodd" clip-rule="evenodd" d="M121.756 120.379C122.082 120.45 122.442 120.524 122.5 120.943C122.554 121.334 122.18 121.667 121.863 121.812C121.696 121.89 121.505 121.981 121.344 121.873C121.179 121.763 121.036 121.596 120.881 121.469C120.512 121.166 119.94 121.307 119.878 120.68C119.851 120.421 119.982 120.034 120.19 119.872C120.577 119.567 121.116 119.714 121.537 119.854L121.756 120.379Z" fill="white"/>
<path fill-rule="evenodd" clip-rule="evenodd" d="M160.231 102.687C160.692 102.351 161.199 102.161 161.749 102.115C161.799 102.164 161.848 102.216 161.899 102.265C162.265 102.413 162.57 102.638 162.72 103.015C163.17 104.154 162.332 104.925 161.658 105.702C160.937 106.532 160.115 107.673 159.291 106.296C158.914 105.665 158.263 104.68 158.353 103.908C158.402 103.497 158.597 103.437 158.906 103.265C159.296 103.049 159.772 102.731 160.228 102.687L160.231 102.687Z" fill="white"/>
<path fill-rule="evenodd" clip-rule="evenodd" d="M153.317 113.347C152.981 113.279 152.384 113.092 152.065 113.387C151.806 113.626 151.882 113.851 151.853 114.162C151.79 114.845 151.842 115.586 152.743 115.635C153.14 115.655 153.684 115.344 153.901 114.984C154.091 114.666 154.154 113.912 153.75 113.719L153.317 113.345L153.317 113.347Z" fill="white"/>
<path fill-rule="evenodd" clip-rule="evenodd" d="M46.1894 90.4448C47.0871 90.6821 47.1489 90.6865 47.6322 91.4182C47.9953 91.967 48.4605 92.5263 48.5235 93.213C48.6078 94.1199 47.9247 94.6697 47.5341 95.3819C47.2297 95.9395 47.0291 96.2382 46.3573 96.3758C45.7119 96.507 44.8858 96.482 44.2348 96.3507C42.1089 95.9271 40.0516 94.0841 39.1477 92.1672C38.5531 90.9095 38.003 89.3192 38.6365 87.9639C39.1676 86.8245 40.2807 85.955 41.5452 85.9111C42.8192 85.8675 43.9985 86.5936 44.7472 87.5869C44.9105 87.8356 45.0762 88.0845 45.2443 88.3333C45.4972 88.6113 45.7748 88.8638 46.0772 89.0862C46.3585 89.3722 46.4833 89.7771 46.1869 90.4495L46.1894 90.4448Z" fill="white"/>
<path fill-rule="evenodd" clip-rule="evenodd" d="M50.1377 90.8286C50.0968 91.8482 50.0925 91.6907 50.6249 92.3071C50.859 92.5772 50.8251 92.7383 51.1296 92.8963C51.4997 93.0899 52.1993 92.9056 52.4492 92.556C52.6491 92.2764 52.5044 91.4653 52.3968 91.1898C52.2343 90.7718 52.0201 90.6931 51.6067 90.5816L50.1378 90.8263L50.1377 90.8286Z" fill="white"/>
<path fill-rule="evenodd" clip-rule="evenodd" d="M102.399 29.8523C103.037 30.1764 103.806 30.5406 103.662 31.4304C103.563 32.0354 102.793 32.432 102.229 32.5493C101.422 32.7158 100.007 32.4231 99.3167 31.9685C98.5728 31.4786 98.5531 30.061 99.0071 29.3795C99.9275 27.9979 102.479 29.0391 103.477 29.7711L102.402 29.85L102.399 29.8523Z" fill="white"/>
<path fill-rule="evenodd" clip-rule="evenodd" d="M108.92 33.9684C108.834 33.7699 108.668 33.1012 108.438 32.9934C108.33 32.9421 108.227 33.0317 108.125 33.014C107.741 32.9512 107.368 32.9317 107.066 33.1817C106.432 33.7069 106.228 34.3943 106.505 35.1692C106.686 35.6785 107.047 35.9958 107.594 35.952C108.196 35.9051 108.949 35.329 108.838 34.6502L108.923 33.9684L108.92 33.9684Z" fill="white"/>
<path fill-rule="evenodd" clip-rule="evenodd" d="M128.241 147.14C129.49 147.479 130.425 148.379 131.23 149.398C131.743 150.047 132.479 150.835 132.185 151.726C131.496 153.822 127.159 152.151 125.85 151.531C124.771 151.02 123.642 150.207 122.872 149.268C122.403 148.692 121.672 147.306 121.856 146.52C122.092 145.507 123.218 145.105 124.134 145.155C126.248 145.273 127.664 146.932 129.503 147.721L128.243 147.137L128.241 147.14Z" fill="white"/>
<path fill-rule="evenodd" clip-rule="evenodd" d="M128.71 146.156C128.876 146.018 129.539 145.363 129.905 145.26C130.167 145.186 130.574 145.066 130.817 145.193C131.155 145.369 131.268 145.816 131.283 146.162C131.292 146.389 131.204 146.74 130.981 146.856C130.804 146.948 130.508 146.895 130.316 146.879C129.969 146.854 129.626 146.756 129.282 146.65C129.124 146.601 128.951 146.579 128.796 146.49C128.562 146.354 128.607 146.16 128.489 145.97L128.705 146.156L128.71 146.156Z" fill="white"/>
<path fill-rule="evenodd" clip-rule="evenodd" d="M137.541 152.267C137.471 152.51 137.401 152.754 137.333 152.997C137.567 153.136 137.739 153.421 138.042 153.335C138.249 153.278 138.568 152.919 138.644 152.714C138.754 152.414 138.707 152.12 138.463 151.925C138.18 151.699 137.855 151.848 137.593 152.059L137.541 152.265L137.541 152.267Z" fill="white"/>
<path fill-rule="evenodd" clip-rule="evenodd" d="M169.105 137.68C169.429 137.817 169.646 137.953 169.676 138.338C169.72 138.891 169.411 139.379 168.871 139.487C168.127 139.637 166.904 139.456 166.406 138.8C166.093 138.386 166.072 137.505 166.639 137.317C166.92 137.223 167.316 137.089 167.607 137.077C168.12 137.058 168.631 137.318 169.031 137.615L169.103 137.677L169.105 137.68Z" fill="white"/>
<path fill-rule="evenodd" clip-rule="evenodd" d="M25.1199 46.8156C25.4427 46.781 25.5777 46.7354 25.8489 46.8923C26.1528 47.0693 26.4323 47.2647 26.542 47.6214C26.757 48.325 26.4276 49.347 26.092 49.9823C25.7842 50.5661 25.3946 50.8895 24.758 51.0449C24.0444 51.2192 23.389 51.1498 22.7684 50.7499C22.1174 50.3299 21.7972 49.8542 21.8739 49.0504C21.9357 48.4084 22.0868 47.5904 22.4317 47.0342C22.754 46.5129 23.1492 46.3089 23.7385 46.2164C24.2632 46.1312 25.0783 46.1296 25.1223 46.8157L25.1199 46.8156Z" fill="white"/>
<path fill-rule="evenodd" clip-rule="evenodd" d="M23.439 52.4204C23.2786 52.3006 23.1321 52.1168 22.9443 52.2489C22.7076 52.4152 22.5772 52.9691 22.6042 53.2348C22.6256 53.4502 22.8017 53.8162 22.993 53.9394C23.1471 54.0352 23.3769 54.0046 23.5474 53.965C23.8405 53.896 24.0496 53.6978 24.0946 53.4178C24.1274 53.2209 24.2331 52.764 23.9961 52.6512L23.4389 52.4228L23.439 52.4204Z" fill="white"/>
<path fill-rule="evenodd" clip-rule="evenodd" d="M14.9508 23.5539C15.2339 23.7852 15.3632 23.9111 15.4756 24.2583C15.6423 24.7648 15.6661 25.3381 15.5915 25.8628C15.4975 26.5419 15.2394 27.2848 14.7345 27.7761C14.3774 28.1245 13.6413 28.1191 13.2396 27.8696C12.7586 27.5722 12.279 26.8741 12.1567 26.3213C11.9183 25.2472 12.1421 23.8877 12.9549 23.0917C13.8909 22.1734 15.3895 23.4063 14.9508 23.5563L14.9508 23.5539Z" fill="white"/>
<path fill-rule="evenodd" clip-rule="evenodd" d="M14.7434 30.8084C14.7379 30.6126 14.6819 30.4342 14.5775 30.2781C14.3887 30.3649 14.1869 30.2723 13.9975 30.3781C13.8105 30.4816 13.6887 30.7066 13.644 30.9055C13.577 31.1991 13.644 31.4804 13.8611 31.688C14.1036 31.9202 14.2411 31.8699 14.5261 31.7553C14.7337 31.674 14.7935 31.6688 14.8466 31.432C14.8745 31.3089 14.8921 31.0662 14.8869 30.9348L14.7433 30.8108L14.7434 30.8084Z" fill="white"/>
</g>
<path fill-rule="evenodd" clip-rule="evenodd" d="M155.75 96.3405C156.549 97.0302 157.6 97.1199 158.098 96.5401C158.596 95.9603 158.354 94.9336 157.554 94.244C156.755 93.5543 155.705 93.4646 155.207 94.0444C154.708 94.6243 154.951 95.6509 155.75 96.3405Z" fill="url(#paint27_linear_2094_40460)"/>
<path fill-rule="evenodd" clip-rule="evenodd" d="M155.942 96.1179C156.57 96.6612 157.399 96.7316 157.791 96.2747C158.182 95.8201 157.992 95.0099 157.362 94.4666C156.732 93.9233 155.905 93.8529 155.513 94.3099C155.122 94.7644 155.312 95.5746 155.942 96.1179Z" fill="white"/>
<path fill-rule="evenodd" clip-rule="evenodd" d="M116.743 135.549C117.542 136.238 118.635 136.279 119.185 135.639C119.735 135.002 119.533 133.924 118.734 133.234C117.934 132.544 116.842 132.503 116.292 133.144C115.741 133.781 115.944 134.859 116.741 135.549L116.743 135.549Z" fill="url(#paint28_linear_2094_40460)"/>
<path fill-rule="evenodd" clip-rule="evenodd" d="M116.954 135.303C117.582 135.846 118.444 135.877 118.877 135.376C119.311 134.873 119.151 134.026 118.523 133.483C117.895 132.939 117.034 132.908 116.6 133.409C116.166 133.912 116.327 134.76 116.954 135.303Z" fill="white"/>
<path fill-rule="evenodd" clip-rule="evenodd" d="M133.347 115.809C134.146 116.499 135.35 116.41 136.039 115.61C136.729 114.81 136.64 113.605 135.841 112.915C135.041 112.225 133.837 112.314 133.148 113.114C132.459 113.914 132.548 115.12 133.347 115.809Z" fill="url(#paint29_linear_2094_40460)"/>
<path fill-rule="evenodd" clip-rule="evenodd" d="M133.612 115.501C134.24 116.044 135.191 115.973 135.734 115.345C136.276 114.716 136.206 113.764 135.578 113.221C134.95 112.678 133.999 112.749 133.456 113.377C132.914 114.006 132.985 114.958 133.612 115.501Z" fill="white"/>
<path style="mix-blend-mode:screen" d="M124.397 120.051C127.282 125.469 134.008 127.519 139.42 124.631C144.833 121.743 146.881 115.01 143.997 109.593C141.112 104.175 134.386 102.125 128.973 105.013C123.561 107.901 121.512 114.634 124.397 120.051Z" fill="url(#paint30_radial_2094_40460)"/>
<path style="mix-blend-mode:screen" d="M22.2672 88.503C24.5711 92.8279 29.9381 94.4659 34.2588 92.1594C38.5795 89.8529 40.2138 84.4802 37.9122 80.1554C35.6084 75.8306 30.2413 74.1926 25.9206 76.4991C21.5999 78.8056 19.9633 84.1782 22.2672 88.503Z" fill="url(#paint31_radial_2094_40460)"/>
<path style="mix-blend-mode:screen" d="M7.62309 13.337C9.9246 17.6618 15.294 19.2998 19.6147 16.9933C23.9354 14.6869 25.572 9.31431 23.2682 4.98943C20.9643 0.664556 15.5971 -0.970995 11.2765 1.33311C6.95582 3.63961 5.32158 9.01223 7.62309 13.337Z" fill="url(#paint32_radial_2094_40460)"/>
<path style="mix-blend-mode:screen" d="M86.3849 15.4041C87.5738 17.6381 90.3505 18.484 92.5824 17.2938C94.8144 16.1012 95.6595 13.324 94.4706 11.0899C93.2818 8.85589 90.505 8.00998 88.2731 9.20021C86.0413 10.3904 85.1961 13.1677 86.3849 15.4041Z" fill="url(#paint33_radial_2094_40460)"/>
<path style="mix-blend-mode:screen" d="M114.54 135.736C115.653 137.824 118.245 138.616 120.332 137.502C122.418 136.388 123.21 133.793 122.097 131.704C120.984 129.616 118.391 128.824 116.305 129.938C114.219 131.052 113.427 133.647 114.54 135.736Z" fill="url(#paint34_radial_2094_40460)"/>
<path style="mix-blend-mode:screen" d="M153.454 96.6364C154.566 98.7247 157.159 99.5168 159.245 98.4029C161.332 97.2889 162.123 94.6936 161.01 92.6052C159.898 90.5168 157.305 89.7247 155.219 90.8387C153.132 91.9526 152.341 94.548 153.454 96.6364Z" fill="url(#paint35_radial_2094_40460)"/>
<defs>
<linearGradient id="paint0_linear_2094_40460" x1="242.879" y1="204.13" x2="180.753" y2="150.991" gradientUnits="userSpaceOnUse">
<stop/>
<stop offset="0.16" stop-color="#010304"/>
<stop offset="0.33" stop-color="#060D11"/>
<stop offset="0.5" stop-color="#0D1D27"/>
<stop offset="0.69" stop-color="#183545"/>
<stop offset="0.87" stop-color="#26526C"/>
<stop offset="1" stop-color="#326B8D"/>
</linearGradient>
<linearGradient id="paint1_linear_2094_40460" x1="163.738" y1="194.089" x2="116.223" y2="153.159" gradientUnits="userSpaceOnUse">
<stop stop-color="#963E42"/>
<stop offset="1" stop-color="#B74439"/>
</linearGradient>
<linearGradient id="paint2_linear_2094_40460" x1="219.256" y1="129.633" x2="171.74" y2="88.702" gradientUnits="userSpaceOnUse">
<stop stop-color="#963E42"/>
<stop offset="1" stop-color="#B74439"/>
</linearGradient>
<radialGradient id="paint3_radial_2094_40460" cx="0" cy="0" r="1" gradientUnits="userSpaceOnUse" gradientTransform="translate(61.3541 59.9648) rotate(130.732) scale(70.0742 128.348)">
<stop stop-color="#EABCB3"/>
<stop offset="0.77" stop-color="#8771C3"/>
<stop offset="0.96" stop-color="#B096E1"/>
</radialGradient>
<radialGradient id="paint4_radial_2094_40460" cx="0" cy="0" r="1" gradientUnits="userSpaceOnUse" gradientTransform="translate(17.5155 12.0376) rotate(130.742) scale(18.9105 17.2048)">
<stop offset="0.02" stop-color="#A06375"/>
<stop offset="0.27" stop-color="#935B7B"/>
<stop offset="0.7" stop-color="#73478B"/>
<stop offset="0.99" stop-color="#5B3898"/>
</radialGradient>
<linearGradient id="paint5_linear_2094_40460" x1="16.8728" y1="10.7546" x2="10.9408" y2="5.64467" gradientUnits="userSpaceOnUse">
<stop stop-color="#FFFF46"/>
<stop offset="1" stop-color="#ED7E25"/>
</linearGradient>
<radialGradient id="paint6_radial_2094_40460" cx="0" cy="0" r="1" gradientUnits="userSpaceOnUse" gradientTransform="translate(136.802 113.903) rotate(130.742) scale(33.4049 61.4519)">
<stop offset="0.02" stop-color="#8681B9"/>
<stop offset="0.3" stop-color="#7F74B3"/>
<stop offset="0.8" stop-color="#6E54A5"/>
<stop offset="0.99" stop-color="#67469F"/>
</radialGradient>
<radialGradient id="paint7_radial_2094_40460" cx="0" cy="0" r="1" gradientUnits="userSpaceOnUse" gradientTransform="translate(69.2615 56.1113) rotate(130.742) scale(35.5188 35.5112)">
<stop offset="0.02" stop-color="#8681B9"/>
<stop offset="0.3" stop-color="#7F74B3"/>
<stop offset="0.8" stop-color="#6E54A5"/>
<stop offset="0.99" stop-color="#67469F"/>
</radialGradient>
<radialGradient id="paint8_radial_2094_40460" cx="0" cy="0" r="1" gradientUnits="userSpaceOnUse" gradientTransform="translate(37.8374 31.9253) rotate(130.732) scale(44.2717 74.0386)">
<stop offset="0.02" stop-color="#6F5FAC"/>
<stop offset="0.41" stop-color="#6852A5"/>
<stop offset="0.99" stop-color="#5B3898"/>
</radialGradient>
<linearGradient id="paint9_linear_2094_40460" x1="85.7989" y1="70.7627" x2="44.2928" y2="35.0089" gradientUnits="userSpaceOnUse">
<stop stop-color="#FFFF4C"/>
<stop offset="1" stop-color="#EE855F"/>
</linearGradient>
<radialGradient id="paint10_radial_2094_40460" cx="0" cy="0" r="1" gradientUnits="userSpaceOnUse" gradientTransform="translate(175.385 147.974) rotate(130.742) scale(13.1241 24.1432)">
<stop offset="0.02" stop-color="#6F5FAC"/>
<stop offset="0.41" stop-color="#6852A5"/>
<stop offset="0.99" stop-color="#5B3898"/>
</radialGradient>
<radialGradient id="paint11_radial_2094_40460" cx="0" cy="0" r="1" gradientUnits="userSpaceOnUse" gradientTransform="translate(34.2005 26.2453) rotate(130.742) scale(24.1796 24.1745)">
<stop offset="0.02" stop-color="#8681B9"/>
<stop offset="0.3" stop-color="#7F74B3"/>
<stop offset="0.8" stop-color="#6E54A5"/>
<stop offset="0.99" stop-color="#67469F"/>
</radialGradient>
<linearGradient id="paint12_linear_2094_40460" x1="123.588" y1="100.949" x2="121.084" y2="98.7923" gradientUnits="userSpaceOnUse">
<stop stop-color="#98C4FB"/>
<stop offset="0.32" stop-color="#5A4E83"/>
</linearGradient>
<radialGradient id="paint13_radial_2094_40460" cx="0" cy="0" r="1" gradientUnits="userSpaceOnUse" gradientTransform="translate(121.698 99.6288) rotate(130.742) scale(1.30121 1.30093)">
<stop offset="0.02" stop-color="#8681B9"/>
<stop offset="0.3" stop-color="#7F74B3"/>
<stop offset="0.8" stop-color="#6E54A5"/>
<stop offset="1" stop-color="#67469F"/>
</radialGradient>
<linearGradient id="paint14_linear_2094_40460" x1="117.414" y1="95.6235" x2="114.91" y2="93.4667" gradientUnits="userSpaceOnUse">
<stop stop-color="#98C4FB"/>
<stop offset="0.32" stop-color="#5A4E83"/>
</linearGradient>
<radialGradient id="paint15_radial_2094_40460" cx="0" cy="0" r="1" gradientUnits="userSpaceOnUse" gradientTransform="translate(115.523 94.2995) rotate(130.742) scale(1.30121 1.30093)">
<stop offset="0.02" stop-color="#8681B9"/>
<stop offset="0.3" stop-color="#7F74B3"/>
<stop offset="0.8" stop-color="#6E54A5"/>
<stop offset="1" stop-color="#67469F"/>
</radialGradient>
<radialGradient id="paint16_radial_2094_40460" cx="0" cy="0" r="1" gradientUnits="userSpaceOnUse" gradientTransform="translate(91.2167 37.3645) rotate(130.742) scale(1.30121 1.30093)">
<stop stop-color="#EABCB3"/>
<stop offset="1" stop-color="#8771C3"/>
</radialGradient>
<radialGradient id="paint17_radial_2094_40460" cx="0" cy="0" r="1" gradientUnits="userSpaceOnUse" gradientTransform="translate(71.6108 24.2769) rotate(130.742) scale(1.30121 1.30093)">
<stop stop-color="#EABCB3"/>
<stop offset="1" stop-color="#8771C3"/>
</radialGradient>
<radialGradient id="paint18_radial_2094_40460" cx="0" cy="0" r="1" gradientUnits="userSpaceOnUse" gradientTransform="translate(95.1046 61.1583) rotate(130.742) scale(1.30121 1.30093)">
<stop stop-color="#EABCB3"/>
<stop offset="1" stop-color="#8771C3"/>
</radialGradient>
<radialGradient id="paint19_radial_2094_40460" cx="0" cy="0" r="1" gradientUnits="userSpaceOnUse" gradientTransform="translate(79.9002 81.8571) rotate(130.742) scale(1.30121 1.30093)">
<stop stop-color="#EABCB3"/>
<stop offset="1" stop-color="#8771C3"/>
</radialGradient>
<radialGradient id="paint20_radial_2094_40460" cx="0" cy="0" r="1" gradientUnits="userSpaceOnUse" gradientTransform="translate(56.9087 84.9132) rotate(130.742) scale(1.30121 1.30093)">
<stop stop-color="#EABCB3"/>
<stop offset="1" stop-color="#8771C3"/>
</radialGradient>
<radialGradient id="paint21_radial_2094_40460" cx="0" cy="0" r="1" gradientUnits="userSpaceOnUse" gradientTransform="translate(36.4671 63.7655) rotate(130.742) scale(1.30121 1.30093)">
<stop stop-color="#EABCB3"/>
<stop offset="1" stop-color="#8771C3"/>
</radialGradient>
<radialGradient id="paint22_radial_2094_40460" cx="0" cy="0" r="1" gradientUnits="userSpaceOnUse" gradientTransform="translate(33.5335 44.0271) rotate(130.742) scale(1.30121 1.30093)">
<stop stop-color="#EABCB3"/>
<stop offset="1" stop-color="#8771C3"/>
</radialGradient>
<radialGradient id="paint23_radial_2094_40460" cx="0" cy="0" r="1" gradientUnits="userSpaceOnUse" gradientTransform="translate(46.0593 25.8585) rotate(130.742) scale(1.30121 1.30093)">
<stop stop-color="#EABCB3"/>
<stop offset="1" stop-color="#8771C3"/>
</radialGradient>
<linearGradient id="paint24_linear_2094_40460" x1="183.442" y1="171.212" x2="130.644" y2="125.732" gradientUnits="userSpaceOnUse">
<stop stop-color="#963E1B"/>
<stop offset="1" stop-color="#B74439"/>
</linearGradient>
<linearGradient id="paint25_linear_2094_40460" x1="32.0112" y1="83.7669" x2="29.3126" y2="86.8934" gradientUnits="userSpaceOnUse">
<stop stop-color="#FFFF46"/>
<stop offset="1" stop-color="#ED7E25"/>
</linearGradient>
<linearGradient id="paint26_linear_2094_40460" x1="92.1435" y1="12.2185" x2="89.6084" y2="15.1555" gradientUnits="userSpaceOnUse">
<stop stop-color="#FFFF46"/>
<stop offset="1" stop-color="#ED7E25"/>
</linearGradient>
<linearGradient id="paint27_linear_2094_40460" x1="158.039" y1="96.5528" x2="155.144" y2="94.0585" gradientUnits="userSpaceOnUse">
<stop stop-color="#98C4FB"/>
<stop offset="0.32" stop-color="#5A4E83"/>
</linearGradient>
<linearGradient id="paint28_linear_2094_40460" x1="119.121" y1="135.651" x2="116.227" y2="133.158" gradientUnits="userSpaceOnUse">
<stop stop-color="#98C4FB"/>
<stop offset="0.32" stop-color="#5A4E83"/>
</linearGradient>
<linearGradient id="paint29_linear_2094_40460" x1="135.979" y1="115.62" x2="133.085" y2="113.127" gradientUnits="userSpaceOnUse">
<stop stop-color="#98C4FB"/>
<stop offset="0.32" stop-color="#5A4E83"/>
</linearGradient>
<radialGradient id="paint30_radial_2094_40460" cx="0" cy="0" r="1" gradientUnits="userSpaceOnUse" gradientTransform="translate(134.677 114.481) rotate(151.915) scale(11.1014 11.1069)">
<stop stop-color="#173DE8"/>
<stop offset="0.04" stop-color="#1538D5"/>
<stop offset="0.19" stop-color="#0F299D"/>
<stop offset="0.33" stop-color="#0A1C6D"/>
<stop offset="0.47" stop-color="#061246"/>
<stop offset="0.61" stop-color="#030A27"/>
<stop offset="0.75" stop-color="#010411"/>
<stop offset="0.88" stop-color="#000104"/>
<stop offset="1"/>
</radialGradient>
<radialGradient id="paint31_radial_2094_40460" cx="0" cy="0" r="1" gradientUnits="userSpaceOnUse" gradientTransform="translate(30.6209 84.0094) rotate(151.915) scale(8.86357 8.86804)">
<stop stop-color="#F09E2B"/>
<stop offset="0.06" stop-color="#D58C26"/>
<stop offset="0.2" stop-color="#9D671C"/>
<stop offset="0.34" stop-color="#6D4813"/>
<stop offset="0.48" stop-color="#462E0C"/>
<stop offset="0.62" stop-color="#271907"/>
<stop offset="0.75" stop-color="#110B03"/>
<stop offset="0.88" stop-color="#040200"/>
<stop offset="1"/>
</radialGradient>
<radialGradient id="paint32_radial_2094_40460" cx="0" cy="0" r="1" gradientUnits="userSpaceOnUse" gradientTransform="translate(15.9837 8.88627) rotate(151.915) scale(8.86357 8.86804)">
<stop stop-color="#F09E2B"/>
<stop offset="0.06" stop-color="#D58C26"/>
<stop offset="0.2" stop-color="#9D671C"/>
<stop offset="0.34" stop-color="#6D4813"/>
<stop offset="0.48" stop-color="#462E0C"/>
<stop offset="0.62" stop-color="#271907"/>
<stop offset="0.75" stop-color="#110B03"/>
<stop offset="0.88" stop-color="#040200"/>
<stop offset="1"/>
</radialGradient>
<radialGradient id="paint33_radial_2094_40460" cx="0" cy="0" r="1" gradientUnits="userSpaceOnUse" gradientTransform="translate(90.9252 12.9596) rotate(151.915) scale(4.58062 4.58293)">
<stop stop-color="#F09E2B"/>
<stop offset="0.06" stop-color="#D58C26"/>
<stop offset="0.2" stop-color="#9D671C"/>
<stop offset="0.34" stop-color="#6D4813"/>
<stop offset="0.48" stop-color="#462E0C"/>
<stop offset="0.62" stop-color="#271907"/>
<stop offset="0.75" stop-color="#110B03"/>
<stop offset="0.88" stop-color="#040200"/>
<stop offset="1"/>
</radialGradient>
<radialGradient id="paint34_radial_2094_40460" cx="0" cy="0" r="1" gradientUnits="userSpaceOnUse" gradientTransform="translate(118.809 133.366) rotate(151.915) scale(4.27945 4.28161)">
<stop stop-color="#173DE8"/>
<stop offset="0.04" stop-color="#1538D5"/>
<stop offset="0.19" stop-color="#0F299D"/>
<stop offset="0.33" stop-color="#0A1C6D"/>
<stop offset="0.47" stop-color="#061246"/>
<stop offset="0.61" stop-color="#030A27"/>
<stop offset="0.75" stop-color="#010411"/>
<stop offset="0.88" stop-color="#000104"/>
<stop offset="1"/>
</radialGradient>
<radialGradient id="paint35_radial_2094_40460" cx="0" cy="0" r="1" gradientUnits="userSpaceOnUse" gradientTransform="translate(157.699 94.2856) rotate(151.915) scale(4.27945 4.2816)">
<stop stop-color="#173DE8"/>
<stop offset="0.04" stop-color="#1538D5"/>
<stop offset="0.19" stop-color="#0F299D"/>
<stop offset="0.33" stop-color="#0A1C6D"/>
<stop offset="0.47" stop-color="#061246"/>
<stop offset="0.61" stop-color="#030A27"/>
<stop offset="0.75" stop-color="#010411"/>
<stop offset="0.88" stop-color="#000104"/>
<stop offset="1"/>
</radialGradient>
</defs>
</svg>
