<svg width="22" height="20" viewBox="0 0 22 20" fill="none" xmlns="http://www.w3.org/2000/svg">
<path d="M20.4093 1.2254C20.1483 1.00828 19.8333 0.865974 19.4978 0.813641C19.1624 0.761308 18.819 0.800903 18.5043 0.928211L2.07681 7.56062C1.7255 7.70516 1.42645 7.95312 1.21936 8.2716C1.01227 8.59007 0.906934 8.964 0.917327 9.34374C0.92772 9.72348 1.05335 10.0911 1.27755 10.3978C1.50175 10.7044 1.81391 10.9357 2.17261 11.0608L5.49552 12.2165L7.34765 18.3413C7.37282 18.4231 7.40934 18.501 7.45616 18.5727C7.46327 18.5837 7.47329 18.5918 7.48084 18.6025C7.53493 18.678 7.60029 18.7447 7.67465 18.8003C7.6958 18.8164 7.71605 18.8315 7.73865 18.8458C7.82568 18.9036 7.92205 18.9458 8.02349 18.9706L8.03434 18.9715L8.04049 18.9742C8.10148 18.9866 8.16356 18.9929 8.2258 18.993C8.23178 18.993 8.2371 18.9901 8.24303 18.99C8.33695 18.9884 8.43006 18.9722 8.51903 18.942C8.53973 18.935 8.55746 18.9232 8.57755 18.9147C8.64389 18.8872 8.70675 18.8519 8.76481 18.8097C8.81131 18.7705 8.85782 18.7313 8.90435 18.6922L11.3813 15.9574L15.0757 18.8193C15.401 19.0725 15.8013 19.2102 16.2135 19.2105C16.6454 19.2099 17.064 19.0609 17.3991 18.7884C17.7342 18.5159 17.9654 18.1365 18.054 17.7137L21.0448 3.03189C21.1126 2.70145 21.0893 2.35879 20.9773 2.04059C20.8654 1.72239 20.669 1.44061 20.4093 1.2254V1.2254ZM8.58927 12.5083C8.46217 12.6349 8.37528 12.7962 8.33952 12.972L8.0558 14.3507L7.33708 11.9737L11.0636 10.0331L8.58927 12.5083ZM16.1992 17.37L11.8334 13.988C11.6508 13.8469 11.4216 13.7797 11.1917 13.8C10.9617 13.8202 10.7479 13.9263 10.5927 14.0972L9.79939 14.9728L10.0797 13.6102L16.5725 7.11747C16.7275 6.9627 16.8219 6.75755 16.8387 6.53917C16.8554 6.32079 16.7934 6.10362 16.6639 5.92701C16.5344 5.7504 16.3459 5.62602 16.1325 5.5764C15.9192 5.52679 15.6951 5.55521 15.501 5.65653L6.18279 10.5081L2.7688 9.25878L19.2491 2.66573L16.1992 17.37Z" fill="currentColor"/>
</svg>
