<svg width="10" height="16" viewBox="0 0 10 16" fill="none" xmlns="http://www.w3.org/2000/svg">
    <path d="M9.05363 1.11939C8.93754 1.00234 8.79943 0.909441 8.64725 0.846041C8.49507 0.782642 8.33185 0.75 8.16699 0.75C8.00214 0.75 7.83891 0.782642 7.68674 0.846041C7.53456 0.909441 7.39644 1.00234 7.28035 1.11939L1.03638 7.36336C0.919336 7.47945 0.826433 7.61757 0.763033 7.76974C0.699633 7.92192 0.666992 8.08514 0.666992 8.25C0.666992 8.41486 0.699633 8.57808 0.763033 8.73026C0.826433 8.88243 0.919336 9.02055 1.03638 9.13664L7.28035 15.3806C7.39644 15.4977 7.53456 15.5906 7.68674 15.654C7.83891 15.7174 8.00214 15.75 8.16699 15.75C8.33185 15.75 8.49507 15.7174 8.64725 15.654C8.79943 15.5906 8.93754 15.4977 9.05363 15.3806C9.17068 15.2645 9.26359 15.1264 9.32698 14.9742C9.39038 14.822 9.42303 14.6588 9.42303 14.494C9.42303 14.3291 9.39038 14.1659 9.32698 14.0137C9.26359 13.8615 9.17068 13.7234 9.05363 13.6073L3.68382 8.25L9.05363 2.89268C9.17068 2.77659 9.26359 2.63847 9.32698 2.48629C9.39038 2.33411 9.42303 2.17089 9.42303 2.00603C9.42303 1.84118 9.39038 1.67795 9.32698 1.52578C9.26359 1.3736 9.17068 1.23548 9.05363 1.11939Z" fill="white" />
</svg>