<svg width="16" height="16" viewBox="0 0 16 16" fill="none" xmlns="http://www.w3.org/2000/svg">
<path d="M5.33332 10.6667H3.99999C3.64637 10.6667 3.30723 10.5262 3.05718 10.2761C2.80713 10.0261 2.66666 9.68696 2.66666 9.33333V4C2.66666 3.64638 2.80713 3.30724 3.05718 3.05719C3.30723 2.80714 3.64637 2.66667 3.99999 2.66667H9.33332C9.68695 2.66667 10.0261 2.80714 10.2761 3.05719C10.5262 3.30724 10.6667 3.64638 10.6667 4V5.33333M6.66666 13.3333H12C12.3536 13.3333 12.6928 13.1929 12.9428 12.9428C13.1928 12.6928 13.3333 12.3536 13.3333 12V6.66667C13.3333 6.31305 13.1928 5.97391 12.9428 5.72386C12.6928 5.47381 12.3536 5.33333 12 5.33333H6.66666C6.31303 5.33333 5.9739 5.47381 5.72385 5.72386C5.4738 5.97391 5.33332 6.31305 5.33332 6.66667V12C5.33332 12.3536 5.4738 12.6928 5.72385 12.9428C5.9739 13.1929 6.31303 13.3333 6.66666 13.3333Z" stroke="white" stroke-linecap="round" stroke-linejoin="round"/>
</svg>
