<svg width="17" height="18" viewBox="0 0 17 18" fill="none" xmlns="http://www.w3.org/2000/svg">
<path d="M1.57655 13.659C2.84913 12.7875 4.34592 11.2874 3.77766 9.52641C3.46956 8.56489 3.0402 7.74213 2.98309 6.70486C2.93368 5.82243 3.05733 4.9387 3.34618 4.10983C4.48833 0.854776 7.88377 -0.687998 10.9542 0.291517C13.7955 1.20353 15.7541 4.71133 14.5633 7.77138C13.8829 9.53841 13.5797 10.9012 15.0956 12.2759C15.5059 12.648 16.5056 13.206 16.5 13.8682C16.5 14.7405 14.8996 13.6852 14.7219 13.5345C14.9235 13.9117 16.9343 16.1498 15.6561 16.3005C14.4786 16.446 13.4373 14.6962 12.7302 13.944C11.5415 12.6825 11.7466 15.4755 11.741 16.0515C11.741 16.9605 11.129 18.8085 10.0419 17.6055C9.14649 16.6148 9.49548 15.0307 8.86165 13.9267C8.17918 12.7177 7.04267 15.1357 6.75854 15.5767C6.44128 16.0718 4.84579 18.4598 4.22324 17.187C3.71209 16.152 4.52923 14.5335 4.93321 13.5982C4.78586 13.938 3.74523 14.4405 3.44207 14.6032C2.7838 14.9892 2.03749 15.1726 1.28678 15.1327C-0.311528 15.0105 0.915229 14.1067 1.55963 13.6627L1.57655 13.659Z" fill="url(#paint0_linear_337_49194)"/>
<defs>
<linearGradient id="paint0_linear_337_49194" x1="13.5" y1="1.5" x2="0.999999" y2="15" gradientUnits="userSpaceOnUse">
<stop stop-color="#C21A9F"/>
<stop offset="1" stop-color="#F993A2"/>
</linearGradient>
</defs>
</svg>
