<svg width="17" height="16" viewBox="0 0 17 16" fill="none" xmlns="http://www.w3.org/2000/svg">
<path d="M8.49996 9V10.3333M4.49996 13H12.5C12.8536 13 13.1927 12.8595 13.4428 12.6095C13.6928 12.3594 13.8333 12.0203 13.8333 11.6667V7.66667C13.8333 7.31304 13.6928 6.97391 13.4428 6.72386C13.1927 6.47381 12.8536 6.33333 12.5 6.33333H4.49996C4.14634 6.33333 3.8072 6.47381 3.55715 6.72386C3.3071 6.97391 3.16663 7.31304 3.16663 7.66667V11.6667C3.16663 12.0203 3.3071 12.3594 3.55715 12.6095C3.8072 12.8595 4.14634 13 4.49996 13ZM11.1666 6.33333V3.66667C11.1666 2.95942 10.8857 2.28115 10.3856 1.78105C9.88548 1.28095 9.2072 1 8.49996 1C7.79272 1 7.11444 1.28095 6.61434 1.78105C6.11424 2.28115 5.83329 2.95942 5.83329 3.66667V6.33333H11.1666Z" stroke="currentColor" stroke-width="1.33" stroke-linecap="round" stroke-linejoin="round"/>
</svg>
