<svg width="15" height="16" viewBox="0 0 15 16" fill="none" xmlns="http://www.w3.org/2000/svg">
<path d="M5.29126 3.75V2.5C5.29126 2.16848 5.42295 1.85054 5.65738 1.61612C5.8918 1.3817 6.20974 1.25 6.54126 1.25H12.5413C12.8728 1.25 13.1907 1.3817 13.4251 1.61612C13.6596 1.85054 13.7913 2.16848 13.7913 2.5V13C13.7913 13.3315 13.6596 13.6495 13.4251 13.8839C13.1907 14.1183 12.8728 14.25 12.5413 14.25H6.54126C6.20974 14.25 5.8918 14.1183 5.65738 13.8839C5.42295 13.6495 5.29126 13.3315 5.29126 13V11.75M8.00024 5.38002L10.5002 7.88002M10.5002 7.88002L8.00024 10.38M10.5002 7.88002H1.28001" stroke="currentColor" stroke-width="2" stroke-linecap="square" stroke-linejoin="round"/>
</svg>
